<svg xmlns="http://www.w3.org/2000/svg" viewBox="0 0 100 140" width="100" height="140">
  <path d="M 76.45,48.66 L 77.35,48.32 L 77.84,49.09 L 79.12,49.13 L 79.61,49.81 L 80.15,50.03 L 80.6,50.82 L 79.97,51.08 L 80.75,52.42 L 80.36,53.69 L 80.54,54.54 L 80.24,55.27 L 79.57,55.91 L 79.75,56.6 L 79.38,57.05 L 79.78,57.89 L 79.78,57.89 L 81.22,57.67 L 82.05,56.79 L 82.65,57.23 L 82.77,57.84 L 82.21,58.73 L 81.47,60.9 L 81.59,61.43 L 82.3,61.91 L 82.76,62.76 L 83.78,62.98 L 83.28,64.05 L 83.27,65.51 L 81.29,65.8 L 80.18,66.56 L 80.36,67.41 L 79.8,68.5 L 79.32,68.79 L 78.77,70.31 L 78.14,71.09 L 78.05,71.99 L 77.98,73.44 L 77.3,74.37 L 78.4,75.11 L 79.05,74.96 L 79.4,73.99 L 80.78,72.79 L 81.48,72.6 L 81.89,71.9 L 82.08,70.89 L 83.68,68.43 L 85.06,67.73 L 85.66,67.84 L 86.23,67.2 L 87.06,67.76 L 86.71,66.93 L 87.29,65.14 L 88.68,63.11 L 88.99,61.28 L 89.63,61.35 L 90.74,60.73 L 90.75,59.65 L 91.62,58.53 L 92.8,58.54 L 92.75,60.13 L 91.9,60.25 L 91.89,62.83 L 91.27,63.59 L 90.84,63.53 L 90.61,64.5 L 89.89,65.47 L 90.18,66.25 L 89.51,66.98 L 89.74,67.45 L 88.79,68.08 L 88.13,69.23 L 87.35,71.77 L 86.43,73.29 L 85.98,74.43 L 85.04,79.21 L 85.06,79.94 L 85.53,81.04 L 85.46,82.33 L 84.83,83.1 L 83.6,83.97 L 83.47,85.1 L 83.05,85.79 L 82.42,88.52 L 82.52,90.24 L 82.99,91.14 L 82.93,92.99 L 81.84,95.17 L 81.69,95.92 L 81.52,97.65 L 80.47,99.63 L 80.04,102.17 L 80.35,103.39 L 80.27,104.54 L 80.75,106.07 L 80.39,107.12 L 81.2,108.22 L 81.24,109.77 L 81.55,110.76 L 82.53,111.95 L 82.35,113.57 L 81.99,114.44 L 81.79,115.53 L 82.2,118.16 L 75.97,118.22 L 74.28,118.28 L 67.99,118.43 L 66.93,118.47 L 64.34,118.45 L 57.71,118.41 L 57.15,118.42 L 50.3,118.34 L 48.9,118.32 L 41.09,118.29 L 37.72,118.23 L 37.73,117.56 L 36.73,115.57 L 33.78,114.67 L 32.49,114.16 L 31.17,113.04 L 30.64,110.23 L 29.98,109.77 L 29.84,108.0 L 29.54,106.05 L 29.55,104.96 L 30.06,104.53 L 30.4,103.59 L 31.42,102.52 L 30.72,101.13 L 29.23,100.36 L 29.2,98.8 L 28.77,98.1 L 29.06,97.16 L 28.63,96.19 L 28.87,95.39 L 28.33,94.71 L 28.24,93.42 L 28.53,92.37 L 28.71,91.37 L 28.13,89.8 L 26.63,87.5 L 26.04,86.85 L 25.83,86.48 L 24.03,85.96 L 23.49,85.82 L 21.77,84.24 L 21.62,83.71 L 20.16,82.93 L 19.52,82.3 L 19.05,81.49 L 19.02,80.56 L 18.59,80.27 L 18.61,79.31 L 17.87,78.56 L 16.21,77.68 L 14.27,76.98 L 13.85,76.62 L 12.95,75.56 L 12.81,74.75 L 12.5,74.47 L 11.04,74.19 L 9.42,74.1 L 8.96,73.29 L 8.21,72.97 L 8.28,72.54 L 6.66,70.9 L 5.6,70.19 L 5.56,69.71 L 6.26,68.28 L 6.22,67.75 L 6.15,66.91 L 6.55,66.16 L 6.25,65.4 L 6.4,64.23 L 5.83,63.59 L 6.73,62.56 L 6.46,60.9 L 6.64,60.39 L 6.65,58.66 L 6.87,58.58 L 7.59,57.8 L 7.55,57.27 L 8.38,56.45 L 8.47,55.54 L 7.29,53.95 L 7.37,53.39 L 6.64,52.78 L 6.1,52.93 L 5.0,52.51 L 5.05,51.12 L 5.43,49.48 L 5.75,49.33 L 6.63,48.63 L 7.78,45.98 L 8.87,45.16 L 10.2,44.78 L 10.64,44.1 L 11.38,44.36 L 11.94,43.36 L 13.2,43.53 L 13.55,42.46 L 14.08,42.3 L 14.13,40.55 L 14.29,35.04 L 14.44,29.84 L 15.58,30.16 L 16.17,29.39 L 15.71,29.04 L 16.55,28.8 L 16.73,28.28 L 17.46,28.1 L 18.53,29.04 L 19.56,29.61 L 21.34,29.45 L 25.27,28.13 L 25.85,28.11 L 28.37,26.88 L 29.68,26.41 L 30.0,25.94 L 30.87,26.35 L 31.25,25.76 L 32.55,25.6 L 33.71,24.34 L 34.43,24.56 L 35.16,23.93 L 35.68,24.01 L 36.91,25.5 L 36.17,26.88 L 34.91,28.28 L 35.36,29.61 L 34.52,30.24 L 33.93,31.64 L 34.29,31.9 L 36.24,31.08 L 36.81,30.63 L 37.08,29.65 L 37.65,30.26 L 39.78,31.96 L 40.41,31.86 L 41.71,32.36 L 42.02,33.07 L 42.65,32.96 L 42.65,32.96 L 43.17,33.4 L 44.58,33.7 L 46.04,36.74 L 45.99,37.23 L 48.82,38.02 L 61.1,41.36 L 62.59,42.22 L 63.44,42.7 L 65.25,43.78 L 66.3,43.64 L 67.15,43.9 L 67.42,44.35 L 68.16,44.43 L 68.31,43.84 L 69.73,43.78 L 69.85,44.23 L 70.96,44.59 L 71.59,44.31 L 72.88,45.13 L 73.61,44.86 L 75.53,45.69 L 76.15,46.92 L 75.27,47.88 L 75.76,48.45 L 76.45,48.66 Z M 33.56,23.39 L 34.34,23.09 L 34.28,23.89 L 33.56,23.39 Z M 93.07,57.22 L 93.33,55.75 L 95.0,56.0 L 93.86,58.37 L 93.07,57.22 Z M 86.93,60.68 L 87.56,60.4 L 87.71,61.54 L 86.95,61.15 L 86.93,60.68 Z M 41.03,23.11 L 41.46,21.6 L 42.08,21.53 L 41.81,22.9 L 41.03,23.11 Z M 40.19,25.78 L 41.28,25.19 L 40.55,26.04 L 40.19,25.78 Z M 38.32,24.73 L 38.59,24.35 L 40.15,23.83 L 40.4,24.07 L 39.83,24.94 L 38.58,25.13 L 38.32,24.73 Z M 36.75,26.54 L 36.91,26.05 L 37.96,25.31 L 38.0,25.65 L 36.75,26.54 Z M 37.09,23.9 L 37.8,24.89 L 37.13,24.94 L 36.72,24.26 L 37.09,23.9 Z M 36.58,22.62 L 38.4,21.98 L 38.96,22.99 L 39.69,22.37 L 39.79,23.18 L 38.96,23.33 L 38.07,24.22 L 37.5,23.45 L 36.68,23.08 L 36.58,22.62 Z M 36.27,27.68 L 37.16,27.36 L 38.83,25.81 L 39.56,26.39 L 37.99,26.98 L 38.25,27.62 L 37.36,27.69 L 36.31,28.35 L 36.27,27.68 Z" fill="#4A5C3A" fill-rule="evenodd" stroke="#C8A96E" stroke-width="2" stroke-linejoin="round" stroke-linecap="round"/>
</svg>